<?xml version="1.0" encoding="UTF-8"?>
<!DOCTYPE svg PUBLIC "-//W3C//DTD SVG 1.1//EN" "http://www.w3.org/Graphics/SVG/1.1/DTD/svg11.dtd">
<!-- Creator: CorelDRAW -->
<svg xmlns="http://www.w3.org/2000/svg" xml:space="preserve" width="498.868mm" height="95.9123mm" version="1.1" style="shape-rendering:geometricPrecision; text-rendering:geometricPrecision; image-rendering:optimizeQuality; fill-rule:evenodd; clip-rule:evenodd"
viewBox="0 0 3083.62 592.86"
 xmlns:xlink="http://www.w3.org/1999/xlink"
 xmlns:xodm="http://www.corel.com/coreldraw/odm/2003">
 <defs>
  <style type="text/css">
   <![CDATA[
    .fil0 {fill:#FEFEFE;fill-rule:nonzero}
   ]]>
  </style>
 </defs>
 <g id="Layer_x0020_1">
  <metadata id="CorelCorpID_0Corel-Layer"/>
  <path class="fil0" d="M583.45 34.42c0,-7.75 -47.15,-31 -62.01,-34.23 -15.5,-3.23 -42.63,34.88 -96.89,122.73 -23.25,38.11 -49.09,96.89 -72.99,158.25 -3.23,0 -6.46,0.65 -8.4,2.58 -84.62,17.44 -134.35,23.9 -187.32,25.84 60.07,-113.04 130.48,-227.37 137.58,-243.51 9.04,-20.02 -38.11,-42.63 -49.74,-39.4 -21.96,7.1 -53.61,78.16 -79.45,127.89 -12.27,23.9 -41.99,88.49 -72.99,155.67 -61.36,1.94 -76.22,7.11 -88.49,31.65 -8.4,17.44 3.88,29.71 16.15,27.77 9.69,-1.94 23.9,-3.23 47.8,-5.17 -25.19,56.2 -46.51,106.58 -54.26,131.77 -18.73,61.36 5.17,85.26 19.38,87.2 13.56,1.94 16.79,-9.69 17.44,-19.38 1.94,-10.34 5.81,-49.74 69.76,-182.8 4.52,-7.1 6.46,-14.21 10.98,-21.32 52.97,-1.94 122.08,5.81 196.36,-14.86 -22.61,60.07 -40.69,111.74 -49.09,130.48 -20.02,43.92 -25.19,81.39 -11.63,99.47 13.56,18.73 29.71,7.11 36.82,-14.21 7.1,-20.67 12.92,-66.53 103.99,-243.51 89.14,-176.98 144.69,-240.93 165.36,-268.06 5.17,-7.11 13.56,-7.11 11.63,-14.86zm-111.74 259.66c-9.69,0 -71.05,80.09 -11.63,59.42 59.43,-20.67 91.72,-28.42 96.89,-18.09 -37.46,22.61 -164.06,113.68 -135,135 29.07,22.61 67.18,23.9 118.85,10.98 52.32,-12.27 76.86,-39.4 51.03,-37.46 -25.19,3.23 -83.32,5.81 -102.7,0.65 -20.67,-2.58 96.89,-67.18 128.54,-91.08 31.65,-25.19 29.71,-49.74 4.52,-65.24 -25.84,-15.5 -79.45,-4.52 -150.5,5.81zm212.51 160.83c-9.69,3.23 1.29,22.61 4.52,30.36 2.58,8.4 2.58,19.38 13.56,24.55 10.34,4.52 26.48,0.65 36.17,-9.04 9.69,-9.69 15.5,-16.79 3.23,-29.71 -12.27,-13.56 -41.99,-21.32 -57.49,-16.15zm813.22 120.79c20.67,-8.4 29.71,-42.63 22.61,-45.86 -12.92,-17.44 -21.96,-36.82 -20.02,-72.99 10.34,-77.51 56.2,-250.62 48.44,-297.12 -10.34,-52.32 -52.97,-66.53 -74.28,-56.2 -21.96,9.69 -125.95,193.13 -211.22,278.39 6.46,-41.34 12.27,-78.8 18.09,-112.39 10.34,-56.84 20.02,-118.2 23.25,-127.89 5.17,-20.67 19.38,-47.8 -25.84,-70.41 -13.56,-7.11 -23.25,-11.63 -36.82,-0.65 -14.21,9.69 -122.08,145.98 -149.85,193.78 -27.77,45.86 -95.6,166 -107.87,186.03 -32.94,48.44 -32.94,68.47 -12.27,80.74 51.67,29.07 47.8,-26.48 73.64,-65.88 26.48,-39.4 133.06,-240.28 182.15,-307.46 -8.4,44.57 -15.5,85.91 -21.32,124.02 -10.33,64.59 -20.67,138.23 -17.44,164.06 3.23,39.4 19.38,49.09 32.94,48.44 43.28,-1.94 36.82,-23.25 69.11,-72.34 33.59,-48.44 156.96,-217.03 193.13,-276.46 -10.34,48.44 -19.38,93.01 -27.13,134.35 -13.56,71.05 -27.13,148.56 -27.13,178.28 0,33.59 9.69,80.74 28.42,100.76 1.29,10.98 23.25,23.9 39.4,16.79zm280.98 -175.69c-45.22,26.48 -121.43,52.32 -154.38,54.26 -33.59,1.94 -22.61,-20.02 -17.44,-27.13 16.79,27.13 38.76,10.98 63.95,-0.65 25.84,-12.27 65.24,-33.59 63.3,-60.07 -3.23,-26.48 -28.42,-56.2 -46.51,-58.13 -13.56,-1.94 -40.69,2.58 -73.64,33.59 -34.88,32.94 -60.72,86.55 -65.88,112.39 -5.17,25.84 13.56,62.01 60.07,51.67 45.21,-10.34 157.61,-69.11 176.98,-81.39 18.73,-12.27 38.11,-50.38 -6.46,-24.55zm-102.06 -37.46c-3.23,16.15 -29.07,27.77 -40.69,31 12.92,-15.5 20.67,-23.25 40.69,-31zm142.1 -89.14c-12.92,11.63 -5.17,23.9 -8.4,46.51 -3.23,22.61 -47.15,142.1 -16.79,186.03 13.56,20.67 28.42,19.38 45.86,8.4 41.98,-27.77 85.91,-65.88 117.56,-112.39 20.02,-29.07 33.59,-71.05 33.59,-85.91 0,-21.32 -10.33,-23.25 -14.86,-15.5 -16.15,26.48 -86.55,129.83 -124.66,142.1 0,-28.42 15.5,-73.64 30.36,-125.31 15.5,-52.32 -7.75,-35.53 -21.96,-51.67 -14.86,-15.5 -22.61,-8.4 -40.69,7.75zm467 -215.74c5.17,-7.1 13.56,-6.46 11.63,-14.21 0,-7.75 -33.59,-29.07 -49.09,-32.3 -15.5,-2.58 -42.63,34.88 -96.89,123.37 -53.61,87.2 -142.1,305.52 -160.19,349.44 -20.02,43.92 -25.19,81.39 -11.63,99.47 13.56,18.73 29.71,7.11 36.82,-14.21 7.11,-21.32 12.92,-65.88 103.99,-242.87 89.78,-177.63 144.69,-241.58 165.36,-268.7zm10.98 275.16c8.4,1.94 14.86,-7.75 10.33,-12.27 -17.44,-19.38 -51.67,-18.09 -72.99,-12.92 -20.67,5.17 -94.95,49.74 -101.41,92.37 -7.11,43.28 37.46,58.13 52.32,52.97 14.86,-5.81 41.34,-13.56 64.59,-27.13 -12.27,34.88 27.13,43.92 46.51,36.82 19.38,-7.1 111.74,-54.9 144.69,-75.57 32.94,-20.67 53.61,-51.67 29.07,-43.28 -23.9,7.75 -141.46,50.38 -156.96,60.72 -16.79,10.33 -1.29,-8.4 9.04,-20.67 7.75,-8.4 3.88,-21.96 -5.81,-29.07 -5.17,-2.58 -102.7,44.57 -109.16,44.57 0,-20.02 82.03,-66.53 89.78,-66.53zm237.05 -63.3c-22.61,-12.27 -40.05,-6.46 -44.57,3.23 -3.88,9.04 -21.32,56.2 -40.05,103.99 -19.38,51.03 -27.13,55.55 -37.46,72.99 -10.34,16.15 3.88,63.95 20.02,65.88 17.44,1.94 31.65,-2.58 71.05,-43.92 38.11,-41.98 92.37,-113.04 101.41,-107.87 -20.67,34.23 -18.73,129.83 13.56,135 32.3,5.17 58.13,-20.02 94.31,-52.97 36.17,-32.3 44.57,-63.3 24.55,-51.67 -20.02,13.56 -65.24,40.05 -82.03,45.21 -16.79,5.17 -9.69,-52.97 5.81,-87.2 14.86,-32.94 3.23,-52.32 -24.55,-54.26 -27.13,-1.94 -96.89,82.68 -149.21,120.79 31,-89.78 55.55,-118.85 59.43,-124.02 4.52,-7.11 -2.58,-20.02 -12.27,-25.19zm366.24 63.3c8.4,1.94 14.86,-7.75 10.33,-12.27 -17.44,-19.38 -51.67,-18.09 -72.99,-12.92 -20.67,5.17 -94.95,49.74 -101.41,92.37 -7.11,43.28 37.46,58.13 52.32,52.97 14.86,-5.81 41.34,-13.56 64.59,-27.13 -12.27,34.88 27.13,43.92 46.51,36.82 19.38,-7.1 111.74,-54.9 144.69,-75.57 32.94,-20.67 53.61,-51.67 29.07,-43.28 -23.9,7.75 -141.46,50.38 -156.96,60.72 -16.79,10.33 -1.29,-8.4 9.04,-20.67 7.75,-8.4 3.88,-21.96 -5.81,-29.07 -5.17,-2.58 -102.7,44.57 -109.16,44.57 0,-20.02 82.03,-66.53 89.78,-66.53z"/>
 </g>
</svg>
