<?xml version="1.0" encoding="UTF-8"?>
<svg id="katman_1" data-name="katman 1" xmlns="http://www.w3.org/2000/svg" version="1.1" viewBox="0 0 1288.79 3405.97">
  <defs>
    <style>
      .cls-1 {
        fill: #fefefe;
        fill-rule: evenodd;
        stroke-width: 0px;
      }
    </style>
  </defs>
  <path class="cls-1" d="M679.76,304.46c-3.07-13.3-23.16-26.87-34.61-39.54-14.73-16.29-18.72-34.07-31.2-46.95-47.15,46.45,7.5,91.03,65.81,86.48M636.77,453.45c14.02,2.11,84.86-14.16,105.98-17.29,79.52-11.79,193.16.24,238.87-16.11,36.27-12.97,39.85-62.38,21.69-86.33-11.6-15.31-73.06,13.97-93.06,19.1-48.36,12.4-261.64,65.53-273.48,100.62ZM760.18,944.87l-20.92,5.57,123.26,454.88,179.35-211.66-33.97-30.82-19.41,120.24-13.64-1.65,2.19-162.56-2.26,53.6-214.59-227.6ZM500.89,1104.44c-15.97,179.59-15.87,252.84,156.28,272.89,174.11,20.28,199.85,29.29,107.31-189.81-49.95-118.27,30.52-360.92-111.29-188.94-105.52,127.97-57.44,233.02-103.3,321.59l-12.8,2.6-36.2-218.32ZM915.7,1608.69c198.41-13.04,204.01-326.44,50.18-263.81l81.43,47.45-156.64-23.61-2.16,15.41,59.4,31.31-55.4-12.95,23.19,206.19ZM575.04,1653.03c-10.59-20.45-46.64-50.26-64.41-72.21-81.9-101.22-87.33-145.22-115.92-264.03-14.58,104.67,78.6,302.22,180.33,336.24ZM707.96,1469.28c-231.32-251.08-181.43,147.99-73.77,190.31,222.1,87.32,341.26-238.32,172.39-244l36.36,59.78-76.21-66.71,55.42,103.76-134.08-117.21-9.36,11.73,29.25,62.33ZM901.9,3334.13c-24.43-48.7-100.3-606.68-117.6-710.3-11.28-67.52-117.94-717.68-101.34-711.38l195.99,992.02c4.13-23.95-10.99-227.67-13.3-275.46-5.33-110.26-38.33-873.22-21.49-865.13,22.7,10.9,76.55,1242.26,81.02,1385.09.54,17.36-15.08,185.13-21.98,185.45l-1.3-.3ZM679.11,584.75c-19.22,31.49,21.04,53.73,44.75,76.79,29.06-1.35,31.47-13.46,54.46-25.82,4.78,11.13-.38,22.71,56.68,32.78,19.47-35.59-8.25-136.06,51.92-115.76-16.39,12.3-12.54,14.2-12.57,14.24l-11.74,12.01c19.97,4.73,26.57,12.45,40.14,7.92-13.31-42.39.32-57.53-56.49-81.44-38.25-16.1-80.64-19.14-122.99-19.47-8.33,20.68.77,30.92-18.58,54.98-18.49,23-13.12,18.22-25.59,43.78ZM831.56,534.51c10.8,45.69-35.58,76.47-78.4,62.49l37.63-11.38c-18.04-10.08-31.84-17.51-47.01-28.57l56.11.04c-7.33-10.33-4.79-5.6-20.91-7.92l20.4-4.63c-20.59-18.94-25.19-11.48-44.79-19.96,29.31-7.93,50.88-5.22,76.97,9.92ZM955.92,434.65c-20.6,11.75-47.13,2.83-71.16,10.32,18.79,8.51,47.4,13.64,61.39,24.97-32.48,4.05-40.6-4.97-67.67-10.84-30.03-6.52-13.63-3.42-21.47,3.72,42.83,4.84,52.68,45.08,77.75,71.93,43.08-11.85,33.05-31.59,44.46-59.26,8.32-20.17,34.48-27.38,35.5-62.46-20.6,14.59-31.8,23.01-58.79,21.62ZM829.63,743.58l-18.63-21.35c7.39-12.47,7.91-2.86,3.31-16.18l-30.28-3.89c-6.11,18.51-16.56,32.86-29.9,45.01,3.24-18.42,2.55-7.63,10.09-22.02,9.55-18.24,1.66-13.5,8.63-29.51,13.51-7.5,33.61-10.2,47.48-1.06,14.61,9.63,9.55,33.19,9.29,49ZM901.97,637.33l-2.06,56.48c126.66,108.74,24.59,91.29,123.66,263.8,47.34,82.42,86.9,167.12,133.59,250.08,27.41,48.7,57.94,83.41,31.39,141.73-74.55,163.78-119.01,115.1-87.94,276.17,10.41,53.97,17.21,112.05,25.66,166.74,51.63,333.88,105.03,684.54,139.19,1020.97,5.03,49.54,34.06,397.21,14.82,361.34-22.23-209.88-190.63-1466.45-323.21-1550.5-.61-.15-135.23,33.73-143.6,43.78-16.27,19.54,5.54,24.79-30.48,30.84-71.77,12.03-168.05,8.96-233.45,22.26-14.73,78.46.78,316.54,4.12,409.73,4.76,132.61,10.47,265.45,22.84,397.64l74.53,753.16c-94.62-513.07-129.97-926.59-169.53-1436.48-13.68-176.25,12.06-133.91-71.32-197.5-57.68-43.99-87.19-81.18-137.92-126.99,37.85,72.14,104.19,108.45,96.59,185.62-27.63,280.59-42.64,523.38-37.98,808.81,3.72,228.23,24.4,622.88,169.81,818.95,4.89,6.59,72.1,65.16,71.66,68.12-25.07,15.52-308.46-18.78-373.49-40.61-87.08-29.24-52.61-64.86-46.95-140.84,5.25-70.52-7.31-131.54-6.11-195.24l-3.74,194.05c-2.24.07-79.06-9.41-82.63-10.72-56.46-55.99-70.71-925.12-51.07-1031.23l74.68,470.46c-36.38-456.54-98.32-516.84-44.4-1009.66,24.52-224.08,82.07-700.74,227.08-873.47-9.18,56.69-51.33,163.87-67.51,230.52-21.65,89.2-36.44,165.68-38.52,257.63-10.93-84.98,92.51-397.07,137.95-485.04,57.25-110.85,78.91-96.15,192.39-124.67,26.24-6.6,112.4-13.66,111.99-44.68-.43-33.03-18.23-16.29-32.6-19.99-13.76-3.54-13.38-27.37-27.15-42.49-39.11-14.4-49.86,8.71-83.57-31.69-26.58-31.86-45.49-13.28-52.72-52.39-9.04-48.9-78.86-45.2,1.15-132.17,181.42-197.21,217.08-99.66,266.03-189.93,48.69-89.8,212.95-178.96,296.11-93.06,43.41,44.84,65.8,109.59,55.71,171.44-14.79,90.66-33.68,108.55-128.43,98.87,12.5-39.46,41.14-60.43,38.55-112.8-13.89,21.63-16.99,59.67-41.38,93.87-25.94,36.38-55.76,32.08-97.36,34.68-44.88,2.81-84.83,4.16-129.59-2.91-58.5-9.24-48.11-18.48-81.02-47.68-18.44,32.72,3.46,51.07,26.06,69.01l-44.18-19.61c-8.17,74.45,117.32,7.49,168.6,8.8l-189.85,62.44.34,28.13c38.79-4.63,118.96-54.29,179.09-63.41-34.52,31.12-135.15,55.53-157.88,123.1,14.61-4.46,76.5-48.19,102.26-60.89,121.35-59.83,282.16-66.79,341.42-128.92,17.92,23.24,24.12,76.1,21.89,105.53-3.94,52.03-24.9,56.34-35.86,87.79-13.84,39.73-3.11,50.74-32.92,96.07-12.71,19.32-40.6,50.84-62.77,56.98ZM852.52,670.39l16.06,1.55,14.22-32.3,2.25-14.77.55-24.37c-14.96-.37-17.89-3.23-29.4,4.25,1.16,17.21-1.08,8.47,16.72,20.86l-23.93,3.3,3.54,41.47ZM882.43,704.51l1.75-20.45-11.87-2.66c-16.05,17.62-12.81,54.09-22.77,75.79l-6.37-74.39c-26.27-8.26-52.41-17.24-80.01-15.42-13.42,26.28-12.37,20.87-29.38,41.94-5.53,6.85-8.84,13.6-12,21.59l-10.74,24.97c-.45.83-1.3,2.34-2.09,3.42l10.07-70.11c-31.51-20.66,4.17-20.73-51.9-56.56-3.49-31.08-6.57-29.32,3.54-57.74l31.3-75.94-62.29,3.42,12.51,79.89-18.2-45.92-17.76,5.03,42.47,324.35c168.14,110.3,202.13-16.92,223.73-161.22ZM550.38,255.85c7.2-16.41,13.36-21.72,29.27-26.42-6.06,11.94-15.33,23.06-25.53,29.77-13.91,34.75-36.78,63.22-52.53,107.31-13.86,38.82-32.37,90.33-27.06,132.86l36.67,3.29c3.05-80.45,36.96-279.99,127-304.91,28.63,37.46,66.53,76.98,115.99,89.7-11.92-18.85-39.18-34.46-55.85-51.69-15.98-16.52-34.41-48.52-46.79-59.23-82.12-3.22-234.07,114.74-269.01,182.34l15.63,13.16c24.2-5.14,109.92-133.18,173.78-157.16-17.43,23.56-62.22,59.24-86.24,87.98-27.4,32.78-50.43,64.38-75.78,97.27-24.08-3.12-4.85-16.49-28.71-9.61-4.86,23.12,21.85,36.77,40.5,39.93l32.46-43.24c-4.31,25.4-26.03,48.28-36.42,73.03l32.66,16.49c34.39-57.79,34.14-159.27,99.94-220.88ZM227.45,2896.7c-2.44-31.55-16.92-80.1-21.55-116.78-35.61-281.66-12.18-711.03-21.29-998.26-16.68,182.36-40.77,989,42.85,1115.03Z"/>
</svg>